<mxfile host="app.diagrams.net" modified="2023-10-06T14:26:27.793Z" agent="Mozilla/5.0 (Windows NT 10.0; Win64; x64) AppleWebKit/537.36 (KHTML, like Gecko) Chrome/117.0.0.0 Safari/537.36" etag="JT7xxYZByehgjUs27w34" version="21.8.2" type="github">
  <diagram name="第 1 页" id="K-mWzO9lz2f0aNnxn6c4">
    <mxGraphModel dx="1995" dy="993" grid="1" gridSize="10" guides="1" tooltips="1" connect="1" arrows="1" fold="1" page="1" pageScale="1" pageWidth="827" pageHeight="1169" math="0" shadow="0">
      <root>
        <mxCell id="0" />
        <mxCell id="1" parent="0" />
        <mxCell id="HwkrnpUNMTJZ5SgdM_mp-1" value="&lt;b&gt;&lt;font style=&quot;font-size: 18px;&quot;&gt;Global Memory&lt;/font&gt;&lt;/b&gt;" style="whiteSpace=wrap;html=1;aspect=fixed;fillColor=#05DEFF;" vertex="1" parent="1">
          <mxGeometry x="40" y="160" width="400" height="400" as="geometry" />
        </mxCell>
        <mxCell id="HwkrnpUNMTJZ5SgdM_mp-2" value="&lt;b&gt;&lt;font style=&quot;font-size: 18px;&quot;&gt;shared memory&lt;/font&gt;&lt;/b&gt;" style="rounded=0;whiteSpace=wrap;html=1;fillColor=#0F77FF;" vertex="1" parent="1">
          <mxGeometry x="40" y="160" width="400" height="110" as="geometry" />
        </mxCell>
        <mxCell id="HwkrnpUNMTJZ5SgdM_mp-3" value="&lt;b&gt;THREAD TILE&lt;/b&gt;" style="rounded=0;whiteSpace=wrap;html=1;fillColor=#B266FF;" vertex="1" parent="1">
          <mxGeometry x="40" y="160" width="400" height="40" as="geometry" />
        </mxCell>
        <mxCell id="HwkrnpUNMTJZ5SgdM_mp-4" value="&lt;b&gt;&lt;font style=&quot;font-size: 18px;&quot;&gt;&amp;nbsp; &amp;nbsp; &amp;nbsp; &amp;nbsp; &amp;nbsp; &amp;nbsp; &amp;nbsp; &amp;nbsp; &amp;nbsp; &amp;nbsp; &amp;nbsp; &amp;nbsp; &amp;nbsp; &amp;nbsp; &amp;nbsp; &amp;nbsp; &amp;nbsp; Global Memory&lt;/font&gt;&lt;/b&gt;" style="whiteSpace=wrap;html=1;aspect=fixed;fillColor=#05DEFF;" vertex="1" parent="1">
          <mxGeometry x="40" y="610" width="400" height="400" as="geometry" />
        </mxCell>
        <mxCell id="HwkrnpUNMTJZ5SgdM_mp-5" value="&lt;b&gt;&lt;font style=&quot;font-size: 18px;&quot;&gt;shared memory&lt;/font&gt;&lt;/b&gt;" style="rounded=0;whiteSpace=wrap;html=1;fillColor=#0F77FF;" vertex="1" parent="1">
          <mxGeometry x="40" y="610" width="180" height="400" as="geometry" />
        </mxCell>
        <mxCell id="HwkrnpUNMTJZ5SgdM_mp-6" value="&lt;b&gt;THREAD TILE&lt;/b&gt;" style="rounded=0;whiteSpace=wrap;html=1;fillColor=#B266FF;" vertex="1" parent="1">
          <mxGeometry x="40" y="610" width="180" height="120" as="geometry" />
        </mxCell>
        <mxCell id="HwkrnpUNMTJZ5SgdM_mp-7" value="&lt;b&gt;&lt;font style=&quot;font-size: 18px;&quot;&gt;shared memory&lt;/font&gt;&lt;/b&gt;" style="rounded=0;whiteSpace=wrap;html=1;fillColor=#0F77FF;" vertex="1" parent="1">
          <mxGeometry x="40" y="1060" width="410" height="400" as="geometry" />
        </mxCell>
        <mxCell id="HwkrnpUNMTJZ5SgdM_mp-8" value="&lt;b&gt;0&lt;/b&gt;" style="rounded=0;whiteSpace=wrap;html=1;fillColor=#FFF70D;" vertex="1" parent="1">
          <mxGeometry x="40" y="1060" width="70" height="60" as="geometry" />
        </mxCell>
        <mxCell id="HwkrnpUNMTJZ5SgdM_mp-9" value="&lt;b&gt;1&lt;/b&gt;" style="rounded=0;whiteSpace=wrap;html=1;fillColor=#FFF70D;" vertex="1" parent="1">
          <mxGeometry x="110" y="1060" width="70" height="60" as="geometry" />
        </mxCell>
        <mxCell id="HwkrnpUNMTJZ5SgdM_mp-10" value="&lt;b&gt;sub_fft_per_block&lt;/b&gt;" style="rounded=0;whiteSpace=wrap;html=1;fillColor=#FFF70D;" vertex="1" parent="1">
          <mxGeometry x="350" y="1060" width="100" height="60" as="geometry" />
        </mxCell>
        <mxCell id="HwkrnpUNMTJZ5SgdM_mp-11" value="&lt;b&gt;........&lt;/b&gt;" style="rounded=0;whiteSpace=wrap;html=1;fillColor=#FFF70D;" vertex="1" parent="1">
          <mxGeometry x="180" y="1060" width="170" height="60" as="geometry" />
        </mxCell>
        <mxCell id="HwkrnpUNMTJZ5SgdM_mp-12" value="&lt;b&gt;THREAD TILE&lt;/b&gt;" style="rounded=0;whiteSpace=wrap;html=1;fillColor=#B266FF;" vertex="1" parent="1">
          <mxGeometry x="40" y="1120" width="410" height="100" as="geometry" />
        </mxCell>
        <mxCell id="HwkrnpUNMTJZ5SgdM_mp-13" value="" style="shape=curlyBracket;whiteSpace=wrap;html=1;rounded=1;flipH=1;labelPosition=right;verticalLabelPosition=middle;align=left;verticalAlign=middle;" vertex="1" parent="1">
          <mxGeometry x="450" y="1060" width="20" height="150" as="geometry" />
        </mxCell>
        <mxCell id="HwkrnpUNMTJZ5SgdM_mp-14" value="&lt;b&gt;SUB_FFT_LENGTH /&amp;nbsp; &amp;nbsp;ELEMENT_PER_THREAD&lt;/b&gt;" style="text;html=1;align=center;verticalAlign=middle;resizable=0;points=[];autosize=1;strokeColor=none;fillColor=none;" vertex="1" parent="1">
          <mxGeometry x="470" y="1120" width="300" height="30" as="geometry" />
        </mxCell>
      </root>
    </mxGraphModel>
  </diagram>
</mxfile>
